<?xml version="1.0" encoding="utf-8"?>
<!-- Generator: Adobe Illustrator 26.0.0, SVG Export Plug-In . SVG Version: 6.00 Build 0)  -->
<svg version="1.1"
	 id="svg32847" inkscape:version="0.48.3.1 r9886" sodipodi:docname="_svgclean2.svg" xmlns:cc="http://creativecommons.org/ns#" xmlns:dc="http://purl.org/dc/elements/1.1/" xmlns:inkscape="http://www.inkscape.org/namespaces/inkscape" xmlns:rdf="http://www.w3.org/1999/02/22-rdf-syntax-ns#" xmlns:sodipodi="http://sodipodi.sourceforge.net/DTD/sodipodi-0.dtd"
	 xmlns="http://www.w3.org/2000/svg" xmlns:xlink="http://www.w3.org/1999/xlink" x="0px" y="0px" viewBox="0 0 192.2 168.4"
	 style="enable-background:new 0 0 192.2 168.4;" xml:space="preserve">
<style type="text/css">
	.st0{display:none;fill:#FF9797;}
	.st1{display:none;}
	.st2{display:inline;}
	.st3{fill:#FFFFFF;}
	.st4{display:inline;fill:#FFFFFF;}
	.st5{fill:#FFFFFF;stroke:#000000;stroke-width:5;stroke-linecap:round;stroke-linejoin:round;stroke-miterlimit:4.9244;}
	.st6{fill:none;stroke:#000000;stroke-width:5;stroke-linecap:round;stroke-linejoin:round;stroke-miterlimit:4.9244;}
	.st7{fill:#FFFFFF;stroke:#000000;stroke-width:4.9998;stroke-linecap:round;stroke-linejoin:round;stroke-miterlimit:4.9242;}
	.st8{fill:none;stroke:#000000;stroke-width:4.9998;stroke-linecap:round;stroke-linejoin:round;stroke-miterlimit:4.9242;}
</style>
<sodipodi:namedview  bordercolor="#666666" borderopacity="1" gridtolerance="10" guidetolerance="10" id="namedview35" inkscape:current-layer="svg32847" inkscape:cx="372.04724" inkscape:cy="-182.85615" inkscape:pageopacity="0" inkscape:pageshadow="2" inkscape:window-height="480" inkscape:window-maximized="0" inkscape:window-width="640" inkscape:window-x="0" inkscape:window-y="0" inkscape:zoom="0.22425739" objecttolerance="10" pagecolor="#ffffff" showgrid="false">
	</sodipodi:namedview>
<g id="layer1" transform="translate(-169.67 -397.84)">
	<rect x="44.9" y="323.3" class="st0" width="420.7" height="336.2"/>
	<g id="imagebot_10" transform="matrix(-.46644 1.1393 -1.1393 -.46644 1440.2 856.09)" class="st1">
		<g id="imagebot_18" class="st2">
			<path inkscape:connector-curvature="0" class="st3" d="M103,1056.5c3.7,6.1-0.5,10-6.2,12.9c-8,4.1-27.9,2.1-34.7-2
				c-6.2-3.8-9-9.3-6-14.2"/>
			<path d="M105.7,1057.4c0.8,2,1,3.9,0.4,5.7c-0.9,3.1-3.5,5.7-8.4,8.2c-8.5,4.3-29.1,2.5-36.7-2.1c-7.6-4.6-10.2-11.3-6.7-17
				c0.6-1,1.8-1.3,2.8-0.7c1,0.6,1.3,1.8,0.7,2.8c-2.7,4.4,1,8.8,5.4,11.4c6.5,3.9,25.5,5.6,32.7,1.9c3.7-1.9,5.8-3.7,6.3-5.7
				c0.4-1.3,0-2.7-1-4.4c-0.6-1-0.3-2.2,0.7-2.8c1-0.6,2.2-0.3,2.8,0.7C105.1,1056.1,105.4,1056.8,105.7,1057.4z"/>
		</g>
		<path inkscape:connector-curvature="0" class="st4" d="M34.9,1011.6c-0.9,15.7,13.9,40.3,31.4,46.1c9,2.9,29.3,3.8,36.5-1.5
			c12.3-9,18.5-20.7,21.3-35.1c1-5.1,1.2-10.9,0.9-15.7c-1.3-17.6-14.8-27.9-20.6-31.9c-0.2-11.5,1-25.2,2.8-38.2
			c2.8-19.4-24.3-14.5-26.7,3.7c-1.1,8.5-3.1,15.5-5.1,34.6c-3.1-10.3-8.4-25-10.2-35.2c-2.9-16.8-27.1-6.7-23,13.8
			c2.7,14,7.1,24.2,9.7,37.5C49,991.8,35.8,995.3,34.9,1011.6L34.9,1011.6z"/>
		<g id="imagebot_14" class="st2">
			<path d="M100.2,1030.8c0.2,0.4,0.2,0.8,0.1,1.3c-0.3,1.1-0.5,2.1-0.7,3.2c-0.7,3.4-1.4,6.9-4.6,14.5c-0.4,1-1.6,1.5-2.7,1.1
				c-1-0.4-1.5-1.6-1.1-2.7c3-7.2,3.7-10.4,4.3-13.7c0.2-1.1,0.4-2.2,0.7-3.4c0.3-1.1,1.4-1.8,2.5-1.5
				C99.5,1029.7,100,1030.2,100.2,1030.8z"/>
		</g>
		<g id="imagebot_13" class="st2">
			<path d="M87.5,1024c0.1,0.3,0.2,0.6,0.1,0.9c-0.1,2-0.2,3.9-0.2,5.8c-0.2,5.3-0.4,10.7-1.6,19.3c-0.2,1.1-1.2,1.9-2.3,1.7
				c-1.1-0.2-1.9-1.2-1.7-2.3c1.2-8.4,1.4-13.7,1.6-18.9c0.1-1.9,0.1-3.8,0.2-5.9c0.1-1.1,1-2,2.1-1.9
				C86.6,1022.8,87.2,1023.3,87.5,1024z"/>
		</g>
		<g id="imagebot_12" class="st2">
			<path d="M73.4,1032.6c0.1,0.2,0.1,0.4,0.1,0.6c0.1,1.1,0.2,2.2,0.3,3.3c0.4,3.7,0.8,7.4,0.7,13.7c0,1.1-0.9,2-2.1,2
				c-1.1,0-2-0.9-2-2.1c0.1-6-0.3-9.7-0.7-13.2c-0.1-1.1-0.2-2.2-0.3-3.4c-0.1-1.1,0.7-2.1,1.8-2.2
				C72.3,1031.2,73.1,1031.8,73.4,1032.6z"/>
		</g>
		<g class="st2">
			<path d="M46.6,931.8c-5.6,4.9-8.1,12.6-6.5,20.7c1.4,7.2,3.3,13.6,5.1,19.7c1.6,5.5,3.1,10.7,4.4,16.5c-0.3,0.2-0.7,0.4-1,0.5
				c-4.8,2.5-14.9,7.8-15.7,22.3c-0.9,16.5,14,41.9,32.8,48.1c8.6,2.8,30.2,4.2,38.3-1.8c11.9-8.7,18.9-20.3,22.1-36.4
				c1-4.9,1.3-10.8,1-16.2c-0.9-12.6-7.9-23.7-20.6-32.8c-0.1-10.4,0.9-23.4,2.8-36.9c0.5-3.5,0.1-6.2-0.7-8.2c-0.8-2-2-3.3-3.2-4.2
				c-3.5-2.7-8.8-3.1-14.1-0.9c-5.4,2.2-11.6,7.7-12.8,16.5c-0.4,2.9-0.9,5.7-1.4,8.9c-0.8,4.3-1.6,9.3-2.6,16.4
				c-2.8-8.8-6-18.7-7.3-26c-0.8-4.8-3.4-8.2-7.1-9.6C55.9,926.9,50.7,928.2,46.6,931.8z M58.7,932.3c2.4,0.8,3.9,3.1,4.5,6.4
				c1.3,7.8,4.6,18,7.6,27c0.9,2.7,1.7,5.2,2.4,7.6c3,12.6,7.5,18.4,9.1,21.4c-2.1-7.9-2.9-9.9-4.5-18.5c-0.2-1.1-0.3-2.4-0.2-3.8
				c1.3-11.5,2.5-18.4,3.5-24.1c0.6-3.2,1.1-6,1.5-9.1c0.9-7,5.9-11.5,10.3-13.3c3.9-1.6,7.7-1.4,10,0.4c2.1,1.6,2.9,4.6,2.4,8.7
				c-2,14.1-3,27.8-2.8,38.5c0,0,0,0,0,0.1c0,0,0,0,0,0c0.1,7.6,2.1,16.8,5,22.5c-0.3-6.8-0.5-12.4-0.8-18.5
				c10.1,8,15.7,17.4,16.4,27.9c0.3,5.1,0,10.6-0.9,15.2c-2.9,15-9.4,25.7-20.5,33.9c-6.3,4.7-25.8,4.1-34.6,1.2
				c-16.8-5.6-30.8-29.3-30-44.1c0.7-12.2,8.7-16.4,13.5-18.9c2.2,13.8-2.3,20-5.4,27.7c5.1-8.8,12.1-11.8,8.9-31.3c0,0,0,0,0,0
				c0,0,0,0,0,0c0,0,0-0.1,0-0.1l0,0c-1.3-6.5-3.1-12.4-4.7-18.1c-1.8-6-3.6-12.2-5-19.3c-1.3-6.7,0.6-13,5.1-16.9
				C52.3,932.2,55.9,931.3,58.7,932.3z"/>
			<polygon points="102.3,973.6 102.3,973.6 102.3,973.6 			"/>
		</g>
	</g>
	<g id="g5439" transform="matrix(.62977 .77678 -.77678 .62977 1980.2 -124.31)" class="st1">
		<g id="g3915-6-1-6-3-8-9-4" transform="matrix(1.2311,0,0,1.2311,-513.75,545.62)" class="st2">
			<path id="path3894-6-1-0-5-5-2-9" inkscape:connector-curvature="0" class="st5" d="M-54.7,1012.3c3.7,6.1-0.5,10-6.2,12.9
				c-8,4.1-27.9,2.1-34.7-2c-6.2-3.8-9-9.3-6-14.2"/>
			<path id="path3112-2-8-6-8-2-9-8" inkscape:connector-curvature="0" class="st5" d="M-147.7,972c-4,8,9.8,13,25,15.8
				c5.9,1.1,17.5,21,31.3,25.7c9,3.1,29.3,3.8,36.5-1.4c12.3-9,18.5-20.7,21.3-35.1c1-5.1,1.2-10.9,1-15.7
				c-1-15.7,13-53.7,11.9-57.7c-3-11.1-15.9-4.6-18.6,2.6c-1.3,3.5-13.9,27.8-13.9,23.1c-0.2-11.4,1-25.2,2.8-38.2
				c2.8-19.4-24.3-14.5-26.7,3.7c-1.1,8.5-3.1,15.5-5.1,34.6c-3.1-10.3-8.4-25-10.2-35.2c-2.9-16.8-27.1-6.7-23,13.8
				c2.7,14,10.4,38.6,9.2,62.8C-115.8,962.9-135.5,947.8-147.7,972L-147.7,972z"/>
			<path id="path3882-6-1-33-9-9-7-9" inkscape:connector-curvature="0" d="M-84.5,929c3,12.7,7.5,18.5,9.1,21.4
				c-2.1-7.9-2.9-9.8-4.5-18.4c-0.3-1.5-0.4-3.2-0.1-5.3L-84.5,929z"/>
			<path id="path3884-6-1-2-9-6-6-0" inkscape:connector-curvature="0" d="M-55.3,929.4c0.1,7.6,2.1,16.8,5,22.5
				c-0.1-4.2-0.4-11.3-0.7-17.7c-0.1-1.7,0.3-3.3,1.7-5.3C-51.3,929.5-53.3,929.4-55.3,929.4L-55.3,929.4z"/>
			<path id="path3886-8-5-4-3-7-0-8" inkscape:connector-curvature="0" class="st6" d="M-64.5,1004.7c4-9.7,4-12.5,5.2-17.4"/>
			<path id="path3888-4-4-9-8-4-7-4" inkscape:connector-curvature="0" class="st6" d="M-73.9,1005.4c1.7-11.5,1.4-17.2,1.9-24.9"/>
			<path id="path3890-1-8-5-1-8-9-7" inkscape:connector-curvature="0" class="st6" d="M-85.1,1005.9c0.1-8-0.6-11.8-1-16.8"/>
		</g>
	</g>
	<g id="g32290" transform="matrix(.19511 1.2155 1.2155 -.19511 -740.71 627.61)">
		<path id="path32292" inkscape:connector-curvature="0" class="st7" d="M-19.6,801.4c-4.4-3.7-3.4-9.8,1.3-15.4
			c5.2-6,23.4-14.1,32.3-12.8c6.3,1,11.5,3.4,9.9,10.3"/>
		<path id="path32294" inkscape:connector-curvature="0" class="st7" d="M-3.7,863.1c-1.9,18.5,19.8,25.4,27.4,7.9
			c4,11.6,28.7,7.5,27.6-9c13.4-2,14.7-17.8,9.6-36.8c-1.2-4.6-3.3-10.1-5.8-14.6c-7.2-12.8-16.7-22-31.2-26.7
			c-8.5-2.8-27.5,4.4-35.1,10c-14.8,11-21.1,39-15.4,53.6C-20.7,862.7-7.1,861.9-3.7,863.1z"/>
		<path id="path32296" inkscape:connector-curvature="0" d="M25.4,869.8c0.2,0.9,1.1,2.5,0.9,2.2l-6.1,1.1c1-2,1.2-3.5,1.2-5
			c0.3-8.7,0-10.8-0.3-19C22.2,852.4,25.3,856.8,25.4,869.8L25.4,869.8z"/>
		<path id="path32298" inkscape:connector-curvature="0" d="M53.3,863c-4-0.9-4.1-0.9-4.1-0.9c-1-6.3-1.7-17.1-2.3-21.3
			C50.4,846.2,52.4,855.4,53.3,863L53.3,863z"/>
		<path id="path32300" inkscape:connector-curvature="0" class="st8" d="M27.4,808.8c-2.7-4.3-3.5-7-10.4-14.9"/>
		<path id="path32302" inkscape:connector-curvature="0" class="st8" d="M17.4,819.2c-2.8-7.2-4.3-12.7-9.6-23.1"/>
		<path id="path32304" inkscape:connector-curvature="0" class="st8" d="M1.3,815.5c-1.1-4.9-1.7-8.7-4.3-16.3"/>
		<path id="path32306" inkscape:connector-curvature="0" d="M-5.6,864.8l3.9-1.8c-3-19.7-10.6-20.3-18.2-27.1
			C-14,842.9-7.1,847.6-5.6,864.8L-5.6,864.8z"/>
	</g>
</g>
</svg>
